<?xml version="1.0" encoding="UTF-8" standalone="no"?>
<!DOCTYPE svg PUBLIC "-//W3C//DTD SVG 1.1//EN" "http://www.w3.org/Graphics/SVG/1.1/DTD/svg11.dtd">
<svg width="100%" height="100%" viewBox="0 0 561 150" version="1.1" xmlns="http://www.w3.org/2000/svg" xmlns:xlink="http://www.w3.org/1999/xlink" xml:space="preserve" xmlns:serif="http://www.serif.com/" style="fill-rule:evenodd;clip-rule:evenodd;stroke-linecap:round;">
    <g transform="matrix(1,0,0,1,0,-515.524)">
        <g id="Artboard1" transform="matrix(0.567906,0,0,0.215945,0,515.524)">
            <rect x="0" y="0" width="987.135" height="691.053" style="fill:none;"/>
            <g transform="matrix(1.82661,0,0,5.14644,-314.121,-1378.76)">
                <g transform="matrix(1.8075,0,0,1.68714,244.453,335.392)">
                    <g transform="matrix(1,0,0,1,-40,-40)">
                        <g transform="matrix(1,0,0,1,4,6)">
                            <path d="M72,6L72,36C72,39.311 69.311,42 66,42L22,42C18.689,42 16,39.311 16,36L16,6C16,2.689 18.689,0 22,0L66,0C69.311,0 72,2.689 72,6Z" style="fill:rgb(129,140,248);fill-opacity:0.25;"/>
                            <path d="M64,16L64,46C64,49.311 61.311,52 58,52L14,52C10.689,52 8,49.311 8,46L8,16C8,12.689 10.689,10 14,10L58,10C61.311,10 64,12.689 64,16Z" style="fill:rgb(129,140,248);fill-opacity:0.5;"/>
                            <path d="M56,26L56,56C56,59.311 53.311,62 50,62L6,62C2.689,62 0,59.311 0,56L0,26C0,22.689 2.689,20 6,20L50,20C53.311,20 56,22.689 56,26Z" style="fill:url(#_Linear1);"/>
                            <path d="M10,34L40,34" style="fill:none;fill-rule:nonzero;stroke:white;stroke-opacity:0.9;stroke-width:2.5px;"/>
                            <path d="M10,42L30,42" style="fill:none;fill-rule:nonzero;stroke:white;stroke-opacity:0.6;stroke-width:2.5px;"/>
                            <path d="M10,50L22,50" style="fill:none;fill-rule:nonzero;stroke:white;stroke-opacity:0.35;stroke-width:2.5px;"/>
                            <path d="M38,67.5C38,68.328 37.328,69 36.5,69L19.5,69C18.672,69 18,68.328 18,67.5C18,66.672 18.672,66 19.5,66L36.5,66C37.328,66 38,66.672 38,67.5Z" style="fill:rgb(129,140,248);fill-opacity:0.4;"/>
                        </g>
                    </g>
                </g>
                <g transform="matrix(0.940188,0,0,0.877583,-147.28,8.84976)">
                    <g transform="matrix(143.956,0,0,143.956,497.806,418.778)">
                        <path d="M0.234,0.009C0.2,0.009 0.169,0.003 0.142,-0.007C0.115,-0.017 0.092,-0.03 0.073,-0.047C0.054,-0.063 0.039,-0.08 0.028,-0.097L0.095,-0.155C0.108,-0.132 0.126,-0.113 0.149,-0.096C0.173,-0.08 0.202,-0.072 0.235,-0.072C0.264,-0.072 0.287,-0.078 0.304,-0.091C0.321,-0.103 0.33,-0.119 0.33,-0.139C0.33,-0.155 0.325,-0.168 0.314,-0.178C0.303,-0.187 0.29,-0.195 0.272,-0.202C0.255,-0.208 0.236,-0.213 0.215,-0.218C0.197,-0.223 0.178,-0.229 0.158,-0.236C0.139,-0.242 0.122,-0.251 0.106,-0.261C0.09,-0.272 0.077,-0.285 0.068,-0.301C0.058,-0.318 0.053,-0.338 0.053,-0.362C0.053,-0.404 0.069,-0.438 0.102,-0.463C0.134,-0.489 0.177,-0.502 0.23,-0.502C0.268,-0.502 0.302,-0.494 0.334,-0.478C0.365,-0.463 0.39,-0.439 0.407,-0.409L0.346,-0.362C0.333,-0.384 0.316,-0.4 0.295,-0.41C0.274,-0.42 0.251,-0.425 0.226,-0.425C0.203,-0.425 0.183,-0.42 0.167,-0.411C0.151,-0.401 0.144,-0.388 0.144,-0.371C0.144,-0.359 0.147,-0.349 0.155,-0.341C0.162,-0.334 0.173,-0.327 0.188,-0.322C0.202,-0.316 0.221,-0.311 0.243,-0.305C0.263,-0.301 0.284,-0.295 0.306,-0.288C0.327,-0.282 0.347,-0.273 0.365,-0.262C0.383,-0.251 0.398,-0.237 0.409,-0.219C0.42,-0.201 0.426,-0.177 0.426,-0.149C0.426,-0.118 0.418,-0.09 0.402,-0.066C0.386,-0.043 0.364,-0.024 0.335,-0.011C0.307,0.002 0.273,0.009 0.234,0.009Z" style="fill:white;fill-rule:nonzero;"/>
                    </g>
                    <g transform="matrix(143.956,0,0,143.956,554.755,418.778)">
                        <path d="M0.24,0.009C0.216,0.009 0.194,0.004 0.173,-0.005C0.153,-0.015 0.137,-0.03 0.126,-0.051C0.114,-0.072 0.108,-0.099 0.108,-0.132L0.108,-0.619L0.207,-0.674L0.207,-0.158C0.207,-0.131 0.211,-0.109 0.22,-0.094C0.228,-0.079 0.244,-0.072 0.266,-0.072C0.273,-0.072 0.281,-0.073 0.29,-0.074C0.299,-0.076 0.309,-0.078 0.319,-0.081L0.319,-0.005C0.306,-0 0.293,0.003 0.279,0.005C0.266,0.008 0.253,0.009 0.24,0.009ZM0.01,-0.417L0.01,-0.493L0.319,-0.493L0.319,-0.417L0.01,-0.417Z" style="fill:white;fill-rule:nonzero;"/>
                    </g>
                    <g transform="matrix(143.956,0,0,143.956,594.775,418.778)">
                        <path d="M0.068,-0L0.068,-0.493L0.167,-0.493L0.167,-0.36L0.146,-0.356C0.149,-0.385 0.16,-0.411 0.177,-0.433C0.194,-0.454 0.214,-0.471 0.237,-0.483C0.26,-0.496 0.283,-0.502 0.306,-0.502C0.322,-0.502 0.337,-0.5 0.351,-0.496C0.365,-0.492 0.38,-0.486 0.395,-0.478L0.347,-0.39C0.34,-0.394 0.33,-0.397 0.319,-0.4C0.308,-0.403 0.297,-0.404 0.287,-0.404C0.272,-0.404 0.257,-0.402 0.242,-0.396C0.228,-0.39 0.214,-0.382 0.203,-0.37C0.191,-0.358 0.182,-0.342 0.176,-0.323C0.173,-0.313 0.171,-0.301 0.169,-0.287C0.167,-0.272 0.167,-0.251 0.167,-0.225L0.167,-0L0.068,-0Z" style="fill:white;fill-rule:nonzero;"/>
                    </g>
                    <g transform="matrix(143.956,0,0,143.956,643.489,418.778)">
                        <path d="M0.237,0.009C0.2,0.009 0.168,0.001 0.142,-0.014C0.116,-0.029 0.096,-0.05 0.083,-0.079C0.069,-0.107 0.062,-0.142 0.062,-0.182L0.062,-0.493L0.16,-0.493L0.16,-0.213C0.16,-0.183 0.163,-0.158 0.171,-0.138C0.178,-0.118 0.19,-0.102 0.205,-0.092C0.221,-0.082 0.241,-0.077 0.265,-0.077C0.293,-0.077 0.316,-0.084 0.334,-0.098C0.352,-0.112 0.365,-0.133 0.373,-0.161C0.382,-0.189 0.386,-0.223 0.386,-0.264L0.386,-0.493L0.483,-0.493L0.483,-0L0.386,-0L0.386,-0.106L0.406,-0.102C0.391,-0.065 0.369,-0.037 0.339,-0.019C0.309,-0.001 0.275,0.009 0.237,0.009Z" style="fill:white;fill-rule:nonzero;"/>
                    </g>
                    <g transform="matrix(143.956,0,0,143.956,712.271,418.778)">
                        <path d="M0.025,-0L0.199,-0.248L0.025,-0.493L0.143,-0.493L0.264,-0.314L0.386,-0.493L0.503,-0.493L0.327,-0.248L0.503,-0L0.384,-0L0.264,-0.181L0.141,-0L0.025,-0Z" style="fill:white;fill-rule:nonzero;"/>
                    </g>
                    <g transform="matrix(143.956,0,0,143.956,777.368,418.778)">
                        <path d="M0.29,0.007C0.245,0.007 0.204,-0.004 0.169,-0.025C0.133,-0.047 0.105,-0.077 0.085,-0.115C0.065,-0.154 0.055,-0.198 0.055,-0.247C0.055,-0.296 0.065,-0.34 0.085,-0.378C0.104,-0.416 0.132,-0.446 0.168,-0.468C0.203,-0.489 0.244,-0.5 0.29,-0.5C0.336,-0.5 0.377,-0.489 0.412,-0.468C0.447,-0.446 0.474,-0.416 0.495,-0.378C0.515,-0.34 0.525,-0.296 0.525,-0.247C0.525,-0.198 0.515,-0.154 0.494,-0.116C0.474,-0.077 0.446,-0.047 0.411,-0.026C0.376,-0.004 0.336,0.007 0.29,0.007ZM0.29,-0.049C0.325,-0.049 0.355,-0.057 0.38,-0.074C0.406,-0.091 0.426,-0.114 0.44,-0.144C0.454,-0.173 0.461,-0.208 0.461,-0.247C0.461,-0.287 0.454,-0.322 0.44,-0.351C0.426,-0.381 0.406,-0.404 0.38,-0.42C0.355,-0.437 0.324,-0.445 0.29,-0.445C0.255,-0.445 0.225,-0.436 0.199,-0.42C0.173,-0.403 0.153,-0.38 0.139,-0.351C0.124,-0.321 0.117,-0.287 0.117,-0.247C0.117,-0.208 0.124,-0.173 0.139,-0.144C0.153,-0.114 0.173,-0.091 0.199,-0.074C0.225,-0.057 0.255,-0.049 0.29,-0.049Z" style="fill:rgb(121,130,246);fill-rule:nonzero;"/>
                    </g>
                    <g transform="matrix(143.956,0,0,143.956,848.818,418.778)">
                        <path d="M0.235,0.007C0.202,0.007 0.173,0.002 0.146,-0.008C0.12,-0.018 0.097,-0.032 0.079,-0.049C0.06,-0.066 0.045,-0.084 0.034,-0.105L0.079,-0.141C0.091,-0.113 0.111,-0.09 0.138,-0.073C0.165,-0.055 0.198,-0.046 0.235,-0.046C0.27,-0.046 0.298,-0.054 0.32,-0.07C0.341,-0.085 0.352,-0.107 0.352,-0.134C0.352,-0.156 0.345,-0.174 0.333,-0.186C0.32,-0.199 0.303,-0.209 0.283,-0.216C0.262,-0.223 0.24,-0.229 0.216,-0.235C0.197,-0.24 0.178,-0.245 0.16,-0.252C0.141,-0.258 0.124,-0.266 0.11,-0.276C0.095,-0.285 0.083,-0.298 0.074,-0.313C0.065,-0.328 0.061,-0.347 0.061,-0.37C0.061,-0.408 0.076,-0.44 0.107,-0.464C0.137,-0.488 0.176,-0.5 0.225,-0.5C0.262,-0.5 0.295,-0.492 0.325,-0.476C0.356,-0.461 0.379,-0.437 0.396,-0.405L0.355,-0.375C0.341,-0.401 0.322,-0.42 0.3,-0.432C0.277,-0.443 0.251,-0.449 0.223,-0.449C0.193,-0.449 0.168,-0.442 0.149,-0.429C0.129,-0.415 0.119,-0.398 0.119,-0.375C0.119,-0.358 0.124,-0.345 0.133,-0.335C0.142,-0.324 0.156,-0.316 0.173,-0.309C0.19,-0.303 0.21,-0.297 0.234,-0.291C0.255,-0.286 0.277,-0.28 0.298,-0.274C0.319,-0.267 0.338,-0.259 0.356,-0.248C0.373,-0.238 0.387,-0.224 0.398,-0.207C0.408,-0.19 0.413,-0.168 0.413,-0.141C0.413,-0.111 0.406,-0.085 0.391,-0.063C0.377,-0.04 0.356,-0.023 0.329,-0.011C0.303,0.001 0.271,0.007 0.235,0.007Z" style="fill:rgb(121,130,246);fill-rule:nonzero;"/>
                    </g>
                </g>
            </g>
        </g>
    </g>
    <defs>
        <linearGradient id="_Linear1" x1="0" y1="0" x2="1" y2="0" gradientUnits="userSpaceOnUse" gradientTransform="matrix(60,60,-60,60,0,0)"><stop offset="0" style="stop-color:rgb(99,102,241);stop-opacity:1"/><stop offset="1" style="stop-color:rgb(129,140,248);stop-opacity:1"/></linearGradient>
    </defs>
</svg>
